HIERARCHY
ROOT Pelvis
{
	OFFSET 0.000000 0.000000 0.000000
	CHANNELS 6 Xposition Yposition Zposition Xrotation Yrotation Zrotation
	JOINT LeftUpLeg_virtual
	{
		OFFSET 0.000000 0.000000 0.000000
		CHANNELS 3 Xrotation Yrotation Zrotation
		JOINT LeftUpLeg
		{
			OFFSET 18.735201 -5.666702 -4.541200
			CHANNELS 3 Xrotation Yrotation Zrotation
			JOINT LeftLeg
			{
				OFFSET -0.021200 -31.938179 0.493100
				CHANNELS 3 Xrotation Yrotation Zrotation
				JOINT LeftFoot
				{
					OFFSET 0.021200 -31.938179 -4.336299
					CHANNELS 3 Xrotation Yrotation Zrotation
					JOINT LeftToeBase
					{
						OFFSET 0.943001 -26.722000 15.023500
						CHANNELS 3 Xrotation Yrotation Zrotation
						End Site
						{
							OFFSET 0 0 0
						}
					}
				}
			}
		}
	}
	JOINT RightUpLeg_virtual
	{
		OFFSET 0.000000 0.000000 0.000000
		CHANNELS 3 Xrotation Yrotation Zrotation
		JOINT RightUpLeg
		{
			OFFSET -18.735201 -5.666702 -4.541200
			CHANNELS 3 Xrotation Yrotation Zrotation
			JOINT RightLeg
			{
				OFFSET 0.018946 -31.938133 0.493100
				CHANNELS 3 Xrotation Yrotation Zrotation
				JOINT RightFoot
				{
					OFFSET -0.018946 -31.938126 -4.336299
					CHANNELS 3 Xrotation Yrotation Zrotation
					JOINT RightToeBase
					{
						OFFSET -0.943001 -26.722004 15.023500
						CHANNELS 3 Xrotation Yrotation Zrotation
						End Site
						{
							OFFSET 0 0 0
						}
					}
				}
			}
		}
	}
	JOINT Hips_virtual
	{
		OFFSET 0.000000 0.000000 0.000000
		CHANNELS 3 Xrotation Yrotation Zrotation
		JOINT Hips
		{
			OFFSET -0.000000 -0.000000 -0.000000
			CHANNELS 3 Xrotation Yrotation Zrotation
			JOINT Spine
			{
				OFFSET 0.000000 10.199997 -0.299500
				CHANNELS 3 Xrotation Yrotation Zrotation
				JOINT Spine1
				{
					OFFSET 0.000000 11.900002 -1.516600
					CHANNELS 3 Xrotation Yrotation Zrotation
					JOINT Spine2
					{
						OFFSET 0.000000 13.600006 -2.842500
						CHANNELS 3 Xrotation Yrotation Zrotation
						JOINT Neck_virtual
						{
							OFFSET 0.000000 0.000000 0.000000
							CHANNELS 3 Xrotation Yrotation Zrotation
							JOINT Neck
							{
								OFFSET 0.000000 9.624100 -2.890100
								CHANNELS 3 Xrotation Yrotation Zrotation
								JOINT Head
								{
									OFFSET 0.000000 14.068802 -1.351900
									CHANNELS 3 Xrotation Yrotation Zrotation
									End Site
									{
										OFFSET 0 0 0
									}
								}
							}
						}
						JOINT LeftShoulder_virtual
						{
							OFFSET 0.000000 0.000000 0.000000
							CHANNELS 3 Xrotation Yrotation Zrotation
							JOINT LeftShoulder
							{
								OFFSET 15.263000 10.923401 -0.547700
								CHANNELS 3 Xrotation Yrotation Zrotation
								JOINT LeftArm
								{
									OFFSET 25.438599 -2.830597 -13.032500
									CHANNELS 3 Xrotation Yrotation Zrotation
									JOINT LeftForeArm
									{
										OFFSET 29.960503 0.000000 0.000000
										CHANNELS 3 Xrotation Yrotation Zrotation
										JOINT LeftHand
										{
											OFFSET 27.849251 0.000000 0.000000
											CHANNELS 3 Xrotation Yrotation Zrotation
											End Site
											{
												OFFSET 0 0 0
											}
										}
									}
								}
							}
						}
						JOINT RightShoulder_virtual
						{
							OFFSET 0.000000 0.000000 0.000000
							CHANNELS 3 Xrotation Yrotation Zrotation
							JOINT RightShoulder
							{
								OFFSET -15.263000 10.923401 -0.547700
								CHANNELS 3 Xrotation Yrotation Zrotation
								JOINT RightArm
								{
									OFFSET -25.438599 -2.830597 -13.032500
									CHANNELS 3 Xrotation Yrotation Zrotation
									JOINT RightForeArm
									{
										OFFSET -29.960503 0.000000 0.000000
										CHANNELS 3 Xrotation Yrotation Zrotation
										JOINT RightHand
										{
											OFFSET -27.849251 0.000000 0.000000
											CHANNELS 3 Xrotation Yrotation Zrotation
											End Site
											{
												OFFSET 0 0 0
											}
										}
									}
								}
							}
						}
					}
				}
			}
		}
	}
}
MOTION
Frames: 12
Frame Time: 0.03333333
-0.308657 92.652222 3.883170 0.000000 0.000000 0.000000 10.394684 -5.035661 -1.478491 -27.368452 10.900803 14.500874 31.308423 -4.607317 -0.581699 -15.989765 -4.134645 -8.755855 0.000000 0.000000 0.000000 6.913919 -1.634974 0.084841 -20.705881 -5.542030 -14.758569 27.867092 4.153924 0.085529 -19.997523 -0.284368 13.554141 0.000000 0.000000 0.000000 -0.318164 -1.177395 0.196442 0.059759 3.902609 0.138725 3.593093 0.610234 -0.041603 0.204401 0.752453 0.226401 0.000000 0.000000 0.000000 2.364415 0.318353 -0.274393 -0.801411 -0.047528 -0.135673 0.000000 0.000000 0.000000 1.305710 1.123218 -1.010665 0.609092 -3.464380 -10.443002 1.758371 -6.248900 -54.282805 4.307785 -37.380625 -3.624317 0.000000 0.000000 0.000000 1.912966 0.338637 1.185093 0.290785 6.951252 11.790919 2.751249 3.758512 50.765832 3.056013 38.729324 3.493294 0.000000 0.000000 0.000000 
-0.288596 92.663628 3.847055 0.000000 0.000000 0.000000 10.356378 -5.039880 -1.501004 -27.417042 10.898278 14.482392 31.261448 -4.613512 -0.581838 -16.020806 -4.136742 -8.765562 0.000000 0.000000 0.000000 6.897232 -1.627426 0.060966 -20.738534 -5.531408 -14.784648 27.949103 4.189610 0.073665 -19.951476 -0.237755 13.553412 0.000000 0.000000 0.000000 -0.290801 -1.187805 0.195375 0.115178 3.972435 0.110671 3.568380 0.583961 -0.078796 0.179696 0.760135 0.227504 0.000000 0.000000 0.000000 2.373659 0.317897 -0.273927 -0.801711 -0.051463 -0.138457 0.000000 0.000000 0.000000 1.288941 1.124140 -1.010927 0.618752 -3.470053 -10.466264 1.742129 -6.326114 -54.204463 4.348530 -37.529588 -3.571210 0.000000 0.000000 0.000000 1.916447 0.359781 1.179162 0.329739 6.930390 11.850046 2.726923 3.786879 50.839960 3.046703 38.815108 3.514804 0.000000 0.000000 0.000000 
-0.249882 92.683556 3.771882 0.000000 0.000000 0.000000 10.284281 -5.043156 -1.538757 -27.510766 10.893004 14.454139 31.196380 -4.622805 -0.580328 -16.062076 -4.139801 -8.780404 0.000000 0.000000 0.000000 6.864901 -1.610560 0.019084 -20.801261 -5.511269 -14.829830 28.103027 4.251962 0.054148 -19.863278 -0.155930 13.554129 0.000000 0.000000 0.000000 -0.234089 -1.213346 0.198680 0.219722 4.115095 0.061962 3.520223 0.541731 -0.144818 0.137396 0.772762 0.228405 0.000000 0.000000 0.000000 2.390488 0.318284 -0.273204 -0.802230 -0.059698 -0.143660 0.000000 0.000000 0.000000 1.258785 1.125100 -1.011201 0.635032 -3.483179 -10.500054 1.684413 -6.471372 -54.051426 4.405860 -37.851085 -3.477700 0.000000 0.000000 0.000000 1.925681 0.397797 1.168448 0.400686 6.881459 11.954149 2.670429 3.846598 50.968279 3.031693 38.980866 3.553538 0.000000 0.000000 0.000000 
-0.196070 92.707382 3.653285 0.000000 0.000000 0.000000 10.184640 -5.037522 -1.579962 -27.645599 10.884294 14.430264 31.158438 -4.630131 -0.575161 -16.081026 -4.141446 -8.794259 0.000000 0.000000 0.000000 6.816623 -1.582797 -0.031687 -20.892499 -5.483314 -14.883447 28.311979 4.326218 0.033368 -19.739435 -0.057217 13.558982 0.000000 0.000000 0.000000 -0.143547 -1.258090 0.214992 0.368004 4.331131 0.003052 3.453157 0.500502 -0.226021 0.088258 0.786272 0.227484 0.000000 0.000000 0.000000 2.412095 0.321696 -0.272955 -0.803032 -0.072573 -0.150668 0.000000 0.000000 0.000000 1.220819 1.125059 -1.010809 0.653571 -3.506486 -10.524232 1.538236 -6.669035 -53.830859 4.439173 -38.380831 -3.364333 0.000000 0.000000 0.000000 1.944022 0.445965 1.154646 0.492147 6.794774 12.080182 2.567589 3.944807 51.115196 3.015025 39.220695 3.601546 0.000000 0.000000 0.000000 
-0.133426 92.729698 3.487511 0.000000 0.000000 0.000000 10.062287 -5.016938 -1.612526 -27.819979 10.870702 14.425136 31.192152 -4.629784 -0.566232 -16.045583 -4.137768 -8.803415 0.000000 0.000000 0.000000 6.748337 -1.544019 -0.082860 -21.015394 -5.448834 -14.935792 28.558600 4.396812 0.016928 -19.586242 0.039847 13.568976 0.000000 0.000000 0.000000 -0.012352 -1.318195 0.252596 0.564243 4.612202 -0.058460 3.377240 0.478170 -0.308125 0.042078 0.797362 0.224079 0.000000 0.000000 0.000000 2.435003 0.330548 -0.274624 -0.804719 -0.089773 -0.158763 0.000000 0.000000 0.000000 1.181266 1.123688 -1.008514 0.670834 -3.542178 -10.519181 1.241588 -6.902752 -53.553010 4.403034 -39.150634 -3.252941 0.000000 0.000000 0.000000 1.974232 0.497707 1.139299 0.591724 6.665366 12.203954 2.398938 4.094197 51.236343 2.996731 39.537602 3.648265 0.000000 0.000000 0.000000 
-0.070268 92.743706 3.272937 0.000000 0.000000 0.000000 9.919532 -4.983496 -1.627789 -28.035198 10.849641 14.448314 31.329600 -4.616210 -0.556675 -15.932560 -4.123060 -8.809066 0.000000 0.000000 0.000000 6.652175 -1.493958 -0.129714 -21.178216 -5.407479 -14.981515 28.832978 4.451907 0.007205 -19.405840 0.122472 13.582266 0.000000 0.000000 0.000000 0.166343 -1.377444 0.315822 0.825303 4.938853 -0.121598 3.308261 0.488267 -0.380459 0.004809 0.805099 0.219117 0.000000 0.000000 0.000000 2.455085 0.346879 -0.280117 -0.808763 -0.109783 -0.167198 0.000000 0.000000 0.000000 1.146048 1.121657 -1.002717 0.685301 -3.590789 -10.472343 0.726398 -7.163787 -53.231404 4.258026 -40.176709 -3.161971 0.000000 0.000000 0.000000 2.017198 0.548592 1.123510 0.689384 6.498995 12.306958 2.139011 4.313211 51.285585 2.969711 39.950415 3.681737 0.000000 0.000000 0.000000 
-0.015175 92.739395 3.010606 0.000000 0.000000 0.000000 9.758004 -4.952425 -1.622111 -28.292544 10.817270 14.502044 31.588611 -4.584341 -0.552619 -15.728911 -4.090244 -8.817178 0.000000 0.000000 0.000000 6.519048 -1.428499 -0.172318 -21.391177 -5.356432 -15.020426 29.138717 4.485981 0.002594 -19.192973 0.186589 13.594753 0.000000 0.000000 0.000000 0.395034 -1.410374 0.402701 1.175576 5.285478 -0.191661 3.264963 0.536971 -0.438185 -0.021250 0.811095 0.214629 0.000000 0.000000 0.000000 2.467405 0.371984 -0.291170 -0.817409 -0.129767 -0.175194 0.000000 0.000000 0.000000 1.120502 1.120184 -0.991940 0.697122 -3.651321 -10.380473 -0.071033 -7.458506 -52.883921 3.977430 -41.457052 -3.105537 0.000000 0.000000 0.000000 2.071631 0.596970 1.108040 0.779168 6.313860 12.379351 1.754259 4.623875 51.219735 2.919529 40.493828 3.689701 0.000000 0.000000 0.000000 
0.024939 92.702019 2.704026 0.000000 0.000000 0.000000 9.581642 -4.952899 -1.595798 -28.589550 10.768608 14.582259 31.978461 -4.530026 -0.561451 -15.427686 -4.032384 -8.836212 0.000000 0.000000 0.000000 6.342253 -1.337049 -0.214257 -21.662191 -5.290607 -15.055969 29.494215 4.500163 -0.001491 -18.934480 0.236499 13.602095 0.000000 0.000000 0.000000 0.668005 -1.392830 0.504667 1.636375 5.629374 -0.276670 3.264245 0.623021 -0.482177 -0.035128 0.818153 0.212425 0.000000 0.000000 0.000000 2.466618 0.406324 -0.308769 -0.833014 -0.146086 -0.181883 0.000000 0.000000 0.000000 1.109155 1.120274 -0.975355 0.706789 -3.723136 -10.246809 -1.200100 -7.810825 -52.534588 3.548882 -42.976302 -3.095386 0.000000 0.000000 0.000000 2.134569 0.643384 1.093428 0.859017 6.137354 12.418939 1.202541 5.048060 51.000661 2.827148 41.209168 3.660648 0.000000 0.000000 0.000000 
0.046074 92.612724 2.358623 0.000000 0.000000 0.000000 9.397943 -5.022590 -1.550369 -28.918768 10.698056 14.682444 32.506609 -4.450791 -0.589548 -15.023474 -3.944730 -8.874140 0.000000 0.000000 0.000000 6.119833 -1.203774 -0.260077 -21.994550 -5.203986 -15.092783 29.928041 4.500855 -0.010585 -18.612190 0.282205 13.601942 0.000000 0.000000 0.000000 0.971182 -1.314903 0.608463 2.216085 5.957204 -0.382560 3.316535 0.739698 -0.517014 -0.035108 0.828336 0.212698 0.000000 0.000000 0.000000 2.448104 0.449543 -0.332980 -0.857075 -0.155380 -0.186257 0.000000 0.000000 0.000000 1.115037 1.122152 -0.952994 0.713891 -3.808077 -10.075186 -2.688946 -8.256102 -52.214365 2.971472 -44.712484 -3.143725 0.000000 0.000000 0.000000 2.202381 0.689484 1.079841 0.929155 5.999658 12.427610 0.436780 5.603683 50.595828 2.673411 42.130430 3.585037 0.000000 0.000000 0.000000 
0.047337 92.451752 1.980829 0.000000 0.000000 0.000000 9.215898 -5.197248 -1.485989 -29.270516 10.600267 14.797938 33.181383 -4.346420 -0.640496 -14.510843 -3.826197 -8.936009 0.000000 0.000000 0.000000 5.854893 -1.012431 -0.312800 -22.387215 -5.091629 -15.134750 30.470635 4.497593 -0.029172 -18.208123 0.335984 13.595365 0.000000 0.000000 0.000000 1.287215 -1.187547 0.699716 2.905346 6.263070 -0.509700 3.423368 0.877425 -0.548419 -0.018272 0.841599 0.213389 0.000000 0.000000 0.000000 2.409432 0.500361 -0.363183 -0.889537 -0.155819 -0.187219 0.000000 0.000000 0.000000 1.138721 1.125204 -0.925517 0.716828 -3.911136 -9.864505 -4.541898 -8.828091 -51.958427 2.250100 -46.640681 -3.265185 0.000000 0.000000 0.000000 2.271769 0.737060 1.066802 0.990147 5.927139 12.407299 -0.587175 6.302790 49.979701 2.443392 43.272373 3.456856 0.000000 0.000000 0.000000 
0.030465 92.203018 1.576454 0.000000 0.000000 0.000000 9.041705 -5.499124 -1.400549 -29.638383 10.471307 14.928574 34.009561 -4.219077 -0.714466 -13.886532 -3.679539 -9.022828 0.000000 0.000000 0.000000 5.553933 -0.752592 -0.372328 -22.837193 -4.951541 -15.183881 31.145837 4.500728 -0.059370 -17.709989 0.409146 13.587080 0.000000 0.000000 0.000000 1.602666 -1.038777 0.766908 3.678863 6.539448 -0.651783 3.577521 1.025651 -0.581187 0.018288 0.855893 0.210668 0.000000 0.000000 0.000000 2.351251 0.556426 -0.398402 -0.928693 -0.147948 -0.183700 0.000000 0.000000 0.000000 1.177764 1.128399 -0.893641 0.713636 -4.038343 -9.606431 -6.740762 -9.543849 -51.799492 1.389669 -48.732358 -3.476914 0.000000 0.000000 0.000000 2.340551 0.787512 1.053088 1.041703 5.937860 12.357224 -1.901662 7.152502 49.137426 2.129131 44.627107 3.275313 0.000000 0.000000 0.000000 
-0.000634 91.857979 1.148377 0.000000 0.000000 0.000000 8.875192 -5.929408 -1.290840 -30.023773 10.309853 15.078493 34.991052 -4.072862 -0.808749 -13.153707 -3.510324 -9.131893 0.000000 0.000000 0.000000 5.224061 -0.424353 -0.435232 -23.342455 -4.785617 -15.240193 31.965132 4.519529 -0.100493 -17.115033 0.509703 13.584722 0.000000 0.000000 0.000000 1.913373 -0.900304 0.804124 4.501456 6.767302 -0.797368 3.765275 1.173913 -0.618280 0.075732 0.868332 0.200304 0.000000 0.000000 0.000000 2.277093 0.614427 -0.437440 -0.971831 -0.134662 -0.174810 0.000000 0.000000 0.000000 1.227293 1.130852 -0.857515 0.703453 -4.193454 -9.287459 -9.247268 -10.393841 -51.759006 0.391572 -50.952644 -3.797046 0.000000 0.000000 0.000000 2.408039 0.841676 1.036954 1.082806 6.039643 12.272919 -3.521104 8.156868 48.070274 1.729459 46.169938 3.046289 0.000000 0.000000 0.000000 
